<svg xmlns="http://www.w3.org/2000/svg" xmlns:xlink="http://www.w3.org/1999/xlink" preserveAspectRatio="xMidYMid" width="3000" height="2001" viewBox="0 0 3000 2001">
  <defs>
    <style>
      .cls-1, .cls-27, .cls-29 {
        fill: #f9edd3;
      }

      .cls-1, .cls-10, .cls-11, .cls-12, .cls-13, .cls-14, .cls-15, .cls-16, .cls-17, .cls-18, .cls-19, .cls-2, .cls-20, .cls-21, .cls-22, .cls-23, .cls-24, .cls-25, .cls-3, .cls-4, .cls-5, .cls-6, .cls-7, .cls-9 {
        fill-rule: evenodd;
      }

      .cls-2 {
        fill: #e4d9da;
      }

      .cls-3 {
        fill: #8a8081;
      }

      .cls-4 {
        fill: #cdbfa9;
      }

      .cls-5 {
        fill: #737373;
      }

      .cls-6 {
        fill: #9c9685;
      }

      .cls-7 {
        fill: #aea691;
      }

      .cls-8 {
        fill: #beb8a8;
      }

      .cls-9 {
        fill: #8b877a;
      }

      .cls-10 {
        fill: #dfc39a;
      }

      .cls-11 {
        fill: #696979;
      }

      .cls-12 {
        fill: #404044;
      }

      .cls-13 {
        fill: #393758;
      }

      .cls-14 {
        fill: #4b4b57;
      }

      .cls-15 {
        fill: #a19e9e;
      }

      .cls-16 {
        fill: #d5c6af;
      }

      .cls-17 {
        fill: #e3d1b6;
      }

      .cls-18 {
        fill: #e1d1b8;
      }

      .cls-19 {
        fill: #f2e4c4;
      }

      .cls-20 {
        fill: #eaddbe;
      }

      .cls-21 {
        fill: #fce1dd;
      }

      .cls-22 {
        fill: #cdaca5;
      }

      .cls-23 {
        fill: #cfb4ae;
      }

      .cls-24 {
        fill: #aba089;
      }

      .cls-25 {
        fill: #ddcaa1;
      }

      .cls-26, .cls-27 {
        font-size: 144px;
      }

      .cls-27, .cls-29 {
        text-anchor: middle;
        font-family: "Grand Quatre";
      }

      .cls-28, .cls-29 {
        font-size: 130.416px;
      }
    </style>
  </defs>
  <g>
    <g>
      <path d="M1545.547,999.674 L1537.853,1006.352 L1534.977,995.715 L1545.547,999.674 Z" class="cls-1"/>
      <path d="M1536.467,1007.679 L1530.687,1015.961 L1525.216,1006.317 L1536.467,1007.679 Z" class="cls-1"/>
      <path d="M1531.303,1017.702 L1530.299,1027.638 L1520.733,1021.661 L1531.303,1017.702 Z" class="cls-2"/>
      <path d="M1612.230,688.303 L1586.379,686.414 C1586.905,686.734 1544.978,675.863 1535.746,668.863 C1526.000,661.473 1517.653,634.775 1517.653,634.775 C1517.653,634.775 1498.651,609.888 1480.452,599.510 C1455.085,585.045 1462.155,547.552 1452.710,524.572 C1448.664,514.726 1456.000,507.064 1467.842,500.012 C1467.842,500.012 1482.323,481.427 1484.866,479.231 C1496.934,468.804 1495.241,454.078 1507.565,442.706 C1519.569,431.628 1522.678,431.251 1530.002,418.593 C1537.326,405.936 1532.583,391.287 1552.331,380.992 C1572.078,370.697 1662.567,258.523 1804.536,346.356 C1888.606,398.369 1981.748,514.058 2011.145,541.617 C2020.567,550.449 2040.978,575.580 2040.978,575.580 C2040.978,575.580 2100.479,627.245 2111.189,635.263 C2121.899,643.280 2117.990,667.552 2120.110,680.930 C2121.582,690.217 2157.277,696.671 2166.922,725.069 C2175.075,749.069 2178.286,751.752 2197.345,785.282 C2210.584,808.573 2208.197,805.178 2210.586,819.288 C2212.975,833.398 2243.625,847.312 2230.132,860.850 C2209.998,881.051 2233.808,950.108 2209.325,1005.690 C2194.518,1039.305 2193.165,1102.733 2156.992,1131.637 C2115.155,1165.067 2018.691,1176.596 1940.096,1176.978 C1808.421,1157.845 1802.982,1151.497 1758.318,1144.676 C1653.804,1128.715 1563.067,1131.890 1549.178,1117.153 C1537.252,1104.498 1501.013,1073.711 1512.606,1056.450 C1524.100,1039.337 1522.885,1050.166 1525.849,1035.917 C1528.796,1021.753 1523.517,1023.800 1527.782,1015.658 C1545.929,981.013 1571.600,1000.855 1597.728,1018.284 C1605.326,1023.353 1609.564,1032.130 1637.450,1032.139 C1664.928,1032.147 1644.262,1048.102 1680.649,1014.860 C1704.971,992.640 1672.596,986.309 1689.783,948.384 C1707.132,910.099 1707.427,887.427 1704.719,844.477 C1701.857,799.083 1668.291,812.489 1667.877,787.550 C1673.048,746.505 1694.871,737.588 1678.129,730.577 C1660.729,723.292 1674.363,720.244 1659.518,720.419 C1644.673,720.595 1630.479,717.455 1631.772,699.923 C1633.238,680.057 1612.955,687.277 1612.230,688.303 Z" class="cls-1"/>
      <g>
        <path d="M1559.740,997.493 C1559.740,997.493 1547.499,1006.698 1547.330,1011.679 C1547.160,1016.660 1542.492,1019.713 1547.330,1027.639 C1548.674,1029.840 1548.413,1030.173 1549.920,1035.325 C1551.223,1039.776 1548.506,1038.079 1543.783,1043.598 C1539.693,1048.379 1531.216,1045.691 1527.826,1041.825 C1525.401,1039.058 1525.902,1028.054 1525.902,1028.054 C1524.180,1025.466 1531.253,989.820 1559.740,997.493 Z" class="cls-3"/>
        <path d="M1524.048,1041.171 L1514.774,1049.519 L1511.307,1036.223 L1524.048,1041.171 Z" class="cls-1"/>
        <path d="M1520.502,1055.357 L1511.228,1063.706 L1507.761,1050.409 L1520.502,1055.357 Z" class="cls-1"/>
        <path d="M1518.729,1055.357 L1509.454,1063.706 L1505.988,1050.409 L1518.729,1055.357 Z" class="cls-1"/>
        <path d="M1531.372,1043.598 C1531.372,1043.598 1536.023,1047.554 1535.307,1049.771 C1534.591,1051.989 1533.157,1053.945 1532.155,1055.439 C1531.152,1056.933 1530.971,1058.156 1531.524,1060.477 C1532.077,1062.798 1530.459,1061.039 1529.002,1063.625 C1527.545,1066.212 1529.868,1070.008 1529.002,1070.552 C1528.135,1071.097 1527.781,1090.446 1524.280,1091.477 C1520.780,1092.508 1511.348,1068.663 1511.348,1068.663 C1511.348,1068.663 1510.781,1061.635 1510.620,1060.517 C1510.283,1058.166 1520.007,1038.969 1531.372,1043.598 Z" class="cls-3"/>
        <path d="M1910.462,851.404 C1910.462,851.404 1882.728,966.326 1903.526,979.241 C1924.324,992.155 1893.676,1022.073 1889.025,1026.471 C1884.373,1030.869 1865.899,1054.349 1853.085,1055.439 C1840.272,1056.529 1835.431,1054.179 1835.431,1054.179 L1910.462,851.404 Z" class="cls-4"/>
        <path d="M1697.349,1169.421 C1697.349,1169.421 1706.613,1165.186 1716.264,1170.680 C1725.915,1176.175 1724.577,1177.232 1732.657,1176.348 C1740.738,1175.464 1749.545,1176.017 1750.312,1178.867 C1751.078,1181.717 1751.608,1183.227 1750.312,1184.535 C1749.015,1185.842 1725.980,1196.227 1718.156,1194.610 C1710.332,1192.994 1696.424,1185.295 1697.349,1169.421 Z" class="cls-3"/>
        <path d="M1581.516,462.520 C1581.516,462.520 1585.486,473.063 1588.061,475.641 C1590.636,478.218 1595.481,483.699 1597.514,485.845 C1599.548,487.992 1600.423,487.303 1600.423,487.303 C1600.423,487.303 1597.758,479.717 1601.150,477.098 C1604.542,474.480 1608.811,475.483 1617.148,474.912 C1625.485,474.340 1617.875,468.351 1617.875,468.351 C1617.875,468.351 1578.341,447.739 1581.516,462.520 Z" class="cls-1"/>
      </g>
      <g>
        <path d="M1507.073,492.376 C1507.073,492.376 1510.111,488.115 1508.379,485.649 C1506.648,483.182 1506.361,483.783 1504.944,483.380 C1502.861,482.787 1501.251,490.952 1496.244,494.442 C1491.212,497.949 1482.796,494.079 1483.945,498.576 C1485.321,503.962 1485.367,503.843 1487.985,504.716 C1491.152,505.772 1494.074,505.067 1498.457,501.534 C1502.539,498.244 1503.800,498.681 1507.073,492.376 Z" class="cls-5"/>
        <path d="M1491.310,489.227 C1491.310,489.227 1494.348,484.966 1492.617,482.500 C1490.885,480.034 1490.599,480.634 1489.181,480.231 C1487.099,479.639 1485.489,487.804 1480.481,491.293 C1475.449,494.800 1467.033,490.930 1468.182,495.427 C1469.558,500.813 1469.605,500.695 1472.222,501.567 C1475.389,502.623 1478.311,501.918 1482.694,498.385 C1486.776,495.096 1488.037,495.533 1491.310,489.227 Z" class="cls-5"/>
        <path d="M1506.422,450.031 C1506.422,450.031 1509.842,445.917 1515.880,450.661 C1521.917,455.404 1522.496,472.065 1522.815,475.850 C1523.121,479.481 1519.392,491.909 1517.550,494.084 C1516.349,495.501 1503.914,511.939 1492.551,507.967 C1478.487,503.050 1467.253,507.691 1465.439,501.039 C1463.176,492.744 1470.055,486.992 1479.468,476.100 C1488.233,465.957 1494.416,449.425 1506.422,450.031 Z" class="cls-6"/>
        <path d="M1508.195,446.484 C1508.195,446.484 1511.615,442.371 1517.653,447.114 C1523.690,451.857 1524.270,468.518 1524.588,472.304 C1524.894,475.934 1521.165,488.363 1519.323,490.537 C1518.122,491.955 1505.686,508.392 1494.324,504.420 C1480.260,499.503 1469.026,504.144 1467.212,497.493 C1464.949,489.197 1471.829,483.445 1481.241,472.553 C1490.006,462.410 1496.189,445.879 1508.195,446.484 Z" class="cls-7"/>
        <circle cx="1476.5" cy="482.703" r="6.78" class="cls-8"/>
      </g>
      <path d="M1471.381,594.475 C1472.225,593.155 1488.455,587.052 1506.581,598.638 C1524.707,610.223 1559.040,587.152 1557.531,587.796 C1549.432,591.252 1519.329,617.263 1501.203,605.677 C1483.076,594.092 1470.537,595.796 1471.381,594.475 Z" class="cls-7"/>
      <g>
        <path d="M1473.583,511.443 C1476.704,511.443 1479.235,513.936 1479.235,517.012 C1479.235,520.088 1476.704,522.581 1473.583,522.581 C1470.462,522.581 1467.932,520.088 1467.932,517.012 C1467.932,513.936 1470.462,511.443 1473.583,511.443 Z" class="cls-7"/>
        <path d="M1489.319,519.035 C1492.501,519.035 1495.081,521.528 1495.081,524.604 C1495.081,527.680 1492.501,530.173 1489.319,530.173 C1486.136,530.173 1483.556,527.680 1483.556,524.604 C1483.556,521.528 1486.136,519.035 1489.319,519.035 Z" class="cls-7"/>
        <path d="M1494.970,537.710 C1498.091,537.710 1500.622,540.253 1500.622,543.390 C1500.622,546.527 1498.091,549.070 1494.970,549.070 C1491.849,549.070 1489.319,546.527 1489.319,543.390 C1489.319,540.253 1491.849,537.710 1494.970,537.710 Z" class="cls-7"/>
        <path d="M1458.384,535.907 C1466.568,535.898 1479.792,543.185 1479.822,561.096 C1479.852,579.069 1496.899,600.191 1489.263,603.097 C1482.081,605.830 1459.830,586.045 1459.863,568.299 C1459.894,551.709 1452.256,535.913 1458.384,535.907 Z" class="cls-9"/>
      </g>
      <g>
        <path d="M1723.692,366.969 C1723.692,366.969 1776.381,419.742 1739.593,467.266 C1705.208,511.685 1688.434,520.506 1692.305,544.093 C1695.881,565.885 1610.694,638.892 1621.057,655.557 C1605.800,631.020 1601.743,628.505 1592.053,618.402 C1581.258,607.147 1594.943,601.043 1580.073,595.732 C1564.904,590.314 1574.804,581.357 1561.158,569.283 C1548.413,558.005 1574.295,546.875 1565.152,536.229 C1552.229,521.180 1579.152,499.358 1551.650,480.109 C1525.172,461.576 1584.588,372.160 1611.496,367.312 C1645.729,361.145 1677.036,329.226 1723.692,366.969 Z" class="cls-10"/>
        <path d="M1563.680,380.362 C1563.680,380.362 1562.971,388.124 1560.528,392.957 C1558.084,397.789 1557.562,404.835 1557.375,410.589 C1557.188,416.344 1556.769,425.458 1558.005,425.703 C1559.241,425.948 1547.788,429.123 1541.612,428.852 C1535.436,428.581 1529.307,429.582 1531.524,425.073 C1533.741,420.564 1535.402,380.011 1563.680,380.362 Z" class="cls-10"/>
        <path d="M1758.851,331.387 C1758.851,331.387 1748.165,331.343 1742.746,331.243 C1737.326,331.142 1696.235,330.662 1690.964,332.992 C1685.693,335.322 1682.440,332.530 1677.803,331.243 C1676.589,330.906 1670.085,332.413 1667.648,326.739 C1665.212,321.065 1662.162,322.505 1659.490,318.249 C1655.546,311.969 1759.245,306.961 1758.851,331.387 Z" class="cls-10"/>
        <path d="M1575.029,451.522 C1575.029,451.522 1586.206,453.855 1597.728,457.819 C1609.249,461.784 1611.060,464.886 1621.057,465.376 C1631.054,465.866 1631.848,466.032 1638.711,470.414 C1645.574,474.796 1653.269,484.195 1655.104,483.009 C1656.940,481.823 1642.843,490.521 1636.189,490.566 C1629.522,490.611 1631.901,499.203 1619.796,500.012 C1607.632,500.825 1591.921,504.873 1588.901,493.715 C1585.880,482.556 1566.283,470.690 1568.094,464.747 C1569.905,458.803 1565.119,449.341 1575.029,451.522 Z" class="cls-11"/>
        <path d="M1574.821,457.434 C1574.821,457.434 1585.481,459.244 1596.469,462.318 C1607.457,465.392 1609.184,467.798 1618.718,468.178 C1628.252,468.559 1629.010,468.687 1635.555,472.086 C1642.100,475.484 1649.439,482.773 1651.190,481.853 C1652.940,480.933 1637.090,486.650 1630.745,486.737 C1624.400,486.825 1632.742,497.619 1621.123,497.970 C1609.505,498.321 1590.931,498.810 1588.050,490.156 C1585.170,481.502 1566.479,472.299 1568.206,467.690 C1569.934,463.081 1565.370,455.743 1574.821,457.434 Z" class="cls-12"/>
        <path d="M1585.481,463.619 L1601.208,463.619 C1602.113,463.619 1602.847,464.353 1602.847,465.258 L1602.847,480.656 C1602.847,481.561 1602.113,482.294 1601.208,482.294 L1585.481,482.294 C1584.576,482.294 1583.842,481.561 1583.842,480.656 L1583.842,465.258 C1583.842,464.353 1584.576,463.619 1585.481,463.619 Z" class="cls-13"/>
        <path d="M1592.347,468.441 C1595.667,468.441 1598.359,470.177 1598.359,472.320 C1598.359,474.462 1595.667,476.199 1592.347,476.199 C1589.027,476.199 1586.336,474.462 1586.336,472.320 C1586.336,470.177 1589.027,468.441 1592.347,468.441 Z" class="cls-14"/>
        <path d="M1590.162,469.155 C1591.903,469.155 1589.531,470.109 1589.531,471.674 C1589.531,473.239 1591.903,474.822 1590.162,474.822 C1588.420,474.822 1587.009,473.554 1587.009,471.989 C1587.009,470.424 1588.420,469.155 1590.162,469.155 Z" class="cls-15"/>
      </g>
      <g>
        <path d="M1912.354,851.404 C1912.354,851.404 1861.262,1079.236 1824.205,1114.757 C1814.124,1124.421 1822.954,1172.563 1785.787,1182.034 C1755.838,1189.666 1715.111,1222.269 1706.797,1172.896 C1722.899,1141.211 1723.014,1126.797 1729.735,1110.235 C1736.456,1093.673 1754.087,1031.168 1754.297,971.158 C1754.507,911.149 1751.919,903.998 1753.668,882.398 C1755.416,860.799 1734.988,1014.578 1912.354,851.404 Z" class="cls-16"/>
        <path d="M1904.787,865.259 C1904.787,865.259 1844.238,1069.971 1807.182,1105.625 C1797.101,1115.324 1805.930,1163.646 1768.764,1173.152 C1738.814,1180.812 1698.087,1213.537 1689.773,1163.980 C1705.875,1132.177 1705.990,1117.709 1712.711,1101.085 C1719.433,1084.461 1737.063,1021.724 1737.274,961.491 C1737.484,901.258 1734.895,894.080 1736.644,872.400 C1738.392,850.720 1727.422,1029.040 1904.787,865.259 Z" class="cls-17"/>
        <path d="M1921.811,819.288 C1921.811,819.288 1849.200,1061.843 1812.102,1101.409 C1802.010,1112.173 1810.849,1165.799 1773.641,1176.348 C1743.657,1184.849 1702.885,1221.166 1694.561,1166.169 C1710.681,1130.875 1710.796,1114.820 1717.525,1096.372 C1724.254,1077.923 1741.905,1008.300 1742.115,941.457 C1742.325,874.613 1739.734,866.647 1741.485,842.588 C1743.235,818.529 1744.246,1001.044 1921.811,819.288 Z" class="cls-1"/>
      </g>
      <g>
        <path d="M2220.043,885.410 C2220.043,885.410 2210.582,904.213 2199.237,906.821 C2187.891,909.429 2197.114,918.781 2189.148,929.492 C2181.183,940.203 2182.008,961.466 2172.125,966.646 C2162.241,971.826 2105.771,1011.055 2089.527,1013.876 C2073.284,1016.697 2007.896,1034.250 2129.880,1023.322 C2186.650,1002.086 2184.126,975.033 2195.454,959.719 C2206.781,944.404 2221.461,908.529 2220.043,885.410 Z" class="cls-18"/>
        <path d="M1856.238,1088.185 C1856.238,1088.185 1941.100,1071.797 1957.120,1076.850 C1973.140,1081.903 1990.219,1084.979 2018.910,1074.961 C2047.602,1064.943 2026.127,1068.277 2072.504,1070.552 C2118.880,1072.828 2130.511,1062.996 2130.511,1062.996 C2130.511,1062.996 2057.146,1068.659 2049.175,1056.698 C2041.203,1044.737 2022.641,1063.080 2007.561,1063.625 C1992.481,1064.171 1961.235,1070.036 1953.967,1064.255 C1946.700,1058.474 1858.303,1081.613 1856.238,1088.185 Z" class="cls-18"/>
        <path d="M1935.996,780.200 C1935.996,780.200 2067.427,700.423 2123.575,685.154 C2116.719,675.352 2124.860,670.437 2118.531,656.816 C1952.325,761.822 1955.940,765.269 1935.996,780.200 Z" class="cls-19"/>
        <path d="M1678.433,597.621 C1678.433,597.621 1675.622,652.623 1676.542,662.484 C1677.462,672.344 1678.565,680.142 1675.281,692.711 C1671.997,705.280 1664.357,703.111 1663.301,705.935 C1662.245,708.760 1643.052,613.619 1678.433,597.621 Z" class="cls-19"/>
        <path d="M1805.166,518.904 C1805.166,518.904 1783.200,556.029 1766.075,576.210 C1748.949,596.391 1731.396,628.478 1731.396,628.478 C1731.396,628.478 1725.787,644.653 1719.417,649.889 C1713.046,655.125 1693.249,710.745 1692.935,714.752 C1692.622,718.758 1681.206,718.646 1678.433,714.752 C1675.661,710.858 1752.002,564.537 1805.166,518.904 Z" class="cls-20"/>
        <path d="M1829.756,1109.596 C1829.756,1109.596 1834.823,1139.042 1868.218,1149.899 C1901.612,1160.756 1820.929,1132.896 1820.929,1132.896 L1829.756,1109.596 Z" class="cls-7"/>
        <path d="M1717.539,1070.198 C1717.539,1070.198 1726.680,1041.133 1724.631,1047.145 C1720.808,1058.358 1656.179,1056.574 1572.152,1052.465 C1657.219,1059.569 1717.539,1070.198 1717.539,1070.198 Z" class="cls-7"/>
      </g>
      <g>
        <path d="M1805.797,392.327 C1805.797,392.327 1805.501,440.616 1793.187,457.190 C1802.836,465.941 1802.644,471.674 1802.644,471.674 C1805.369,475.300 1805.634,450.494 1817.815,483.423 C1818.992,486.607 1822.964,497.863 1831.867,489.184 C1847.528,473.915 1837.663,473.233 1840.608,470.224 C1852.855,457.708 1833.662,365.472 1805.797,392.327 Z" class="cls-21"/>
        <path d="M1805.797,392.327 C1805.797,392.327 1805.501,440.616 1793.187,457.190 C1802.836,465.941 1802.644,471.674 1802.644,471.674 C1805.369,475.300 1805.634,450.494 1817.815,483.423 C1818.992,486.607 1822.964,497.863 1831.867,489.184 C1847.528,473.915 1837.663,473.233 1840.608,470.224 C1852.855,457.708 1833.662,365.472 1805.797,392.327 Z" class="cls-1"/>
        <path d="M1808.482,401.318 C1808.482,401.318 1808.242,440.427 1798.231,453.850 C1806.075,460.938 1805.919,465.580 1805.919,465.580 C1808.134,468.518 1808.350,448.427 1818.252,475.096 C1819.209,477.675 1822.438,486.791 1829.675,479.762 C1842.407,467.396 1834.387,466.843 1836.781,464.406 C1846.737,454.269 1831.135,379.567 1808.482,401.318 Z" class="cls-22"/>
        <path d="M1809.580,411.219 C1809.332,411.308 1840.673,429.741 1811.025,435.233 C1823.409,439.560 1807.688,456.560 1807.688,456.560 C1809.635,459.171 1815.832,444.424 1820.929,469.155 C1825.743,492.512 1822.565,488.651 1832.278,462.857 C1837.803,448.186 1829.089,445.735 1832.108,445.622 C1846.522,445.084 1835.706,401.828 1809.580,411.219 Z" class="cls-1"/>
        <path d="M1812.864,420.398 C1812.682,420.464 1835.752,434.127 1813.928,438.198 C1823.043,441.405 1811.472,454.006 1811.472,454.006 C1812.904,455.942 1817.466,445.011 1821.218,463.342 C1824.762,480.656 1822.422,477.794 1829.572,458.674 C1833.639,447.799 1827.224,445.982 1829.447,445.899 C1840.057,445.500 1832.095,413.436 1812.864,420.398 Z" class="cls-23"/>
        <path d="M1805.851,394.062 C1815.661,387.007 1823.715,384.295 1830.230,385.669 C1841.446,388.036 1905.178,472.961 1901.635,491.825 C1898.327,509.438 1855.418,531.435 1846.150,537.166 C1835.328,543.859 1863.996,377.802 1805.851,394.062 Z" class="cls-24"/>
        <path d="M1805.851,392.173 C1815.661,385.118 1823.715,382.405 1830.230,383.780 C1841.446,386.147 1905.178,471.072 1901.635,489.936 C1898.327,507.549 1855.418,529.545 1846.150,535.277 C1835.328,541.970 1863.996,375.912 1805.851,392.173 Z" class="cls-25"/>
      </g>
    </g>
    <text transform="translate(1078 1135) scale(5.44 5.44)" class="cls-26"><tspan x="0" class="cls-27">PEN</tspan></text>
    <text transform="translate(1511 1665) scale(5.44 5.44)" class="cls-28"><tspan x="0" class="cls-29">MANBOX</tspan></text>
  </g>
</svg>
